# xmcd
#
# Track frame offsets:
#	150
#	12619
#	26990
#	41403
#	53004
#	64288
#	79638
#	92327
#	104834
#	118215
#	129851
#	150998
#	169175
#	186326
#	200409
#	216660
#	239328
#	250864
#	265443
#	282215
#
# Disc length: 3957 seconds
#
# Revision: 1
# Processed by: cddbd v1.5.2PL0 Copyright (c) Steve Scherf et al.
# Submitted via: audiograbber 1.83.01
#
DISCID=250f7314
DTITLE=Peter Kent - Sangen i mit hjerte
DYEAR=2012
DGENRE=Country
TTITLE0=Altid på vej (2012)
TTITLE1=The Tennessee waltz (2012)
TTITLE2=Vi der ta'r på landevejen (2012)
TTITLE3=Answer me (2012)
TTITLE4=Walk on by (2012)
TTITLE5=Din nu og for altid (2012)
TTITLE6=High noon (2012)
TTITLE7=True love (2012)
TTITLE8=Vor kærlighed (2012)
TTITLE9=He'll have to go (2012)
TTITLE10=Sangen i mit hjerte (2012)
TTITLE11=Vores strand (2012)
TTITLE12=My Israel (2012)
TTITLE13=Når du gi'r mig tro og varme (2012)
TTITLE14=Kom lad os flyve sammen (2012)
TTITLE15=Mit eget sted (2012)
TTITLE16=Lever mit liv for dig (2012)
TTITLE17=Venus fra Milo (2012)
TTITLE18=Mit Israel (2012)
TTITLE19=White christmas (2012)
EXTD=
EXTT0=
EXTT1=
EXTT2=
EXTT3=
EXTT4=
EXTT5=
EXTT6=
EXTT7=
EXTT8=
EXTT9=
EXTT10=
EXTT11=
EXTT12=
EXTT13=
EXTT14=
EXTT15=
EXTT16=
EXTT17=
EXTT18=
EXTT19=
PLAYORDER=
